#Comment line ignore any data following # character
#Hierarchical Translation and Rotation (.htr) file
[Header]		#Header keywords are followed by a single value
FileType htr		#Single word string
DataType HTRS		#Translation followed by rotation and scale data
FileVersion 1		#integer
NumSegments 18		#integer
NumFrames 5		#integer
DataFrameRate 60		#integer, data frame rate in this file
EulerRotationOrder ZYX
CalibrationUnits mm
RotationUnits Degrees
GlobalAxisofGravity Y
BoneLengthAxis Y
ScaleFactor 1.000000
[SegmentNames&Hierarchy]
#CHILD	PARENT
Head	Neck
Neck	Chest
Chest	Hips
LeftShoulder	LeftCollar
RightShoulder	RightCollar
LeftElbow	LeftShoulder
RightElbow	RightShoulder
LeftWrist	LeftElbow
RightWrist	RightElbow
Hips	GLOBAL
LeftHip	Hips
RightHip	Hips
LeftKnee	LeftHip
RightKnee	RightHip
LeftAnkle	LeftKnee
RightAnkle	RightKnee
LeftCollar	Chest
RightCollar	Chest
[BasePosition]
#SegmentName Tx, Ty, Tz, Rx, Ry, Rz, BoneLength
Head	0.000003	141.966248	0.000002	-37.745777	-8.179454	6.203664	80.000046
Neck	0.000000	379.566772	0.000000	32.855431	-5.194619	1.823337	141.966263
Chest	0.000000	94.891693	0.000000	0.000002	12.877405	-0.000012	379.566803
LeftShoulder	0.000003	154.023666	0.000005	171.957962	-79.977570	-157.094910	215.219986
RightShoulder	-0.000001	146.408707	-0.000001	20.020029	60.865143	-8.207462	240.139038
LeftElbow	0.000007	215.219971	-0.000011	-24.162848	54.442085	-17.491318	336.440125
RightElbow	-0.000021	240.139038	0.000007	-21.925606	-43.617706	23.102211	322.101532
LeftWrist	-0.000014	336.440094	0.000002	173.178864	-0.531422	156.628021	100.348160
RightWrist	0.000005	322.101501	0.000026	1.868945	1.747480	14.125610	109.739998
Hips	377.886597	1077.530640	704.474976	-179.011169	36.455761	-178.006714	94.891701
LeftHip	95.336761	5.238981	-8.336124	-0.485735	-9.415434	-176.117065	525.916443
RightHip	-96.119095	-4.691877	-4.857316	2.457280	-1.423929	-179.125565	528.302429
LeftKnee	0.000004	525.916443	0.000001	-10.646533	-14.541370	-1.855900	514.711975
RightKnee	-0.000002	528.302429	0.000004	-12.768950	2.118825	-3.063609	521.764099
LeftAnkle	0.000003	514.711975	0.000009	97.965164	-0.000001	0.000000	253.446518
RightAnkle	0.000001	521.764099	-0.000002	99.242271	0.000002	0.000000	256.283173
LeftCollar	19.999998	366.483276	-15.126845	169.660507	-4.312743	90.901894	154.023682
RightCollar	-19.999996	366.483215	-15.126822	171.369568	4.171492	-91.645760	146.408707
#Beginning of Data. Separated by tabs
[Head]
#Fr	Tx	Ty	Tz	Rx	Ry	Rz	SF
81	0.000010	19.536667	-0.000007	-22.541475	0.813551	7.492953	0.999999
82	-0.000019	18.860123	0.000002	-21.934271	0.737106	7.716224	1.000000
83	-0.000008	17.977982	0.000004	-21.143721	0.534070	7.655111	1.000000
84	-0.000007	17.149918	0.000006	-20.429770	0.382324	7.890678	1.000000
85	0.000009	16.173050	-0.000006	-19.633240	0.208856	8.078643	1.000000
[Neck]
#Fr	Tx	Ty	Tz	Rx	Ry	Rz	SF
81	0.000010	-20.714966	-0.000020	8.897065	2.645372	-9.312691	1.137615
82	-0.000013	-20.972504	-0.000029	8.374916	2.340362	-8.914795	1.132849
83	-0.000010	-21.149597	0.000012	7.758279	2.011864	-8.369646	1.126635
84	0.000005	-21.248413	0.000008	7.114697	1.691508	-7.956057	1.120803
85	0.000006	-21.271118	-0.000004	6.454901	1.396130	-7.571592	1.113922
[Chest]
#Fr	Tx	Ty	Tz	Rx	Ry	Rz	SF
81	0.000002	-5.178680	-0.000000	0.000000	-9.657524	0.000024	0.945425
82	-0.000002	-5.243088	-0.000001	0.000030	-9.324909	0.000001	0.944746
83	-0.000000	-5.287384	-0.000001	-0.000019	-8.893052	0.000022	0.944279
84	-0.000001	-5.312111	0.000001	-0.000032	-8.550611	0.000022	0.944019
85	0.000000	-5.317810	0.000001	-0.000015	-8.273789	0.000012	0.943959
[LeftShoulder]
#Fr	Tx	Ty	Tz	Rx	Ry	Rz	SF
81	-0.000005	13.593781	-0.000007	69.296791	45.353374	98.081192	1.133920
82	-0.000017	13.552795	0.000007	70.450394	46.029884	99.184235	1.136530
83	-0.000002	13.630844	-0.000003	71.447868	46.550362	100.063850	1.139131
84	0.000004	13.625946	-0.000009	72.253494	46.929783	100.680733	1.141883
85	0.000000	13.703674	-0.000006	72.905090	47.162418	101.132828	1.144513
[RightShoulder]
#Fr	Tx	Ty	Tz	Rx	Ry	Rz	SF
81	0.000002	10.797195	0.000007	60.686871	-57.227516	-95.309471	1.001024
82	-0.000007	10.871658	-0.000001	64.001564	-58.114708	-98.746475	1.003201
83	0.000005	10.790329	0.000001	67.024963	-58.727554	-101.892700	1.005230
84	-0.000005	10.676163	-0.000009	69.684143	-59.112190	-104.677185	1.006980
85	0.000012	10.523941	0.000000	72.012993	-59.325836	-107.111992	1.008570
[LeftElbow]
#Fr	Tx	Ty	Tz	Rx	Ry	Rz	SF
81	-0.000012	28.822296	0.000003	-106.401695	-36.962765	-9.377155	0.595867
82	-0.000012	29.384033	0.000001	-108.081261	-38.096851	-10.065764	0.600735
83	-0.000018	29.943756	0.000003	-110.314751	-38.487000	-9.207042	0.605838
84	-0.000004	30.536133	0.000000	-112.936455	-38.220276	-7.199054	0.610921
85	0.000007	31.102173	-0.000011	-115.734993	-37.304970	-4.382518	0.615319
[RightElbow]
#Fr	Tx	Ty	Tz	Rx	Ry	Rz	SF
81	0.000011	0.245972	-0.000014	-77.435707	60.959476	42.146244	0.742568
82	0.000008	0.768738	-0.000009	-74.255539	61.685150	47.084396	0.742686
83	0.000028	1.256012	0.000008	-71.207214	62.158154	51.503323	0.742905
84	0.000025	1.676254	-0.000004	-68.406868	62.410824	55.345795	0.742963
85	0.000018	2.058060	0.000010	-65.702606	62.464531	58.830936	0.742859
[LeftWrist]
#Fr	Tx	Ty	Tz	Rx	Ry	Rz	SF
81	0.000004	-135.966568	-0.000013	112.810623	-62.948460	-81.462250	0.901898
82	0.000033	-134.328827	-0.000013	112.429192	-62.706696	-81.285851	0.901659
83	0.000019	-132.611771	0.000011	111.650230	-61.968845	-80.677994	0.904060
84	0.000005	-130.901794	-0.000003	110.759537	-60.791901	-79.949844	0.907239
85	0.000004	-129.421982	-0.000005	109.608429	-59.302639	-78.976234	0.911415
[RightWrist]
#Fr	Tx	Ty	Tz	Rx	Ry	Rz	SF
81	0.000018	-82.919281	-0.000058	-140.414307	66.937866	-104.852333	0.869046
82	-0.000017	-82.881180	-0.000022	-140.580688	66.741142	-104.198685	0.866951
83	-0.000020	-82.810791	-0.000008	-140.854523	66.756981	-103.778297	0.865635
84	-0.000002	-82.792038	-0.000016	-141.295471	66.948410	-103.623093	0.864444
85	-0.000007	-82.825394	-0.000036	-141.853012	67.260986	-103.626816	0.863711
[Hips]
#Fr	Tx	Ty	Tz	Rx	Ry	Rz	SF
81	-1204.523682	-76.498413	-711.029907	175.439560	-88.988403	-141.856842	0.945425
82	-1210.274658	-70.941467	-707.076172	137.404953	-88.985733	-102.869255	0.944747
83	-1215.828125	-65.554321	-702.358398	107.965332	-88.625404	-72.659157	0.944280
84	-1221.101074	-60.413208	-697.177368	88.343117	-88.077042	-52.421719	0.944019
85	-1225.934814	-55.565186	-691.807861	76.019913	-87.434845	-39.626877	0.943959
[LeftHip]
#Fr	Tx	Ty	Tz	Rx	Ry	Rz	SF
81	0.694588	-7.785313	3.918183	58.659729	0.154769	-0.610667	0.980306
82	1.103294	-6.909001	4.395123	59.093563	-0.083962	-0.246958	0.979835
83	1.188263	-6.750913	4.267820	59.418365	-0.375596	0.062508	0.980303
84	1.210854	-6.524647	4.369953	59.577606	-0.651166	0.306022	0.980406
85	1.168045	-6.282260	4.601951	59.557091	-0.868936	0.502163	0.981321
[RightHip]
#Fr	Tx	Ty	Tz	Rx	Ry	Rz	SF
81	0.164093	2.410973	-0.126128	59.856735	3.162266	-12.678340	0.996074
82	-0.108772	1.917358	0.296509	60.280178	3.030177	-12.088657	0.996749
83	-0.241226	1.809472	0.579874	60.384289	2.769104	-11.705478	0.997898
84	-0.256920	1.732598	0.806952	60.308578	2.612273	-11.314457	0.998845
85	-0.165688	1.674651	0.924306	60.139187	2.503331	-10.970383	1.000562
[LeftKnee]
#Fr	Tx	Ty	Tz	Rx	Ry	Rz	SF
81	-0.000033	-10.357422	-0.000050	-40.834167	-2.565852	10.293829	0.976723
82	-0.000015	-10.605225	-0.000000	-39.236580	-2.161028	9.753608	0.976801
83	0.000008	-10.359009	-0.000007	-37.726589	-1.657587	9.292742	0.976359
84	0.000005	-10.304749	0.000040	-36.238098	-1.026648	8.752420	0.976393
85	-0.000003	-9.823792	-0.000010	-34.770771	-0.354383	8.197419	0.975687
[RightKnee]
#Fr	Tx	Ty	Tz	Rx	Ry	Rz	SF
81	-0.000013	-2.074219	-0.000005	-38.436138	8.499176	-4.893425	0.986720
82	0.000005	-1.717590	-0.000030	-37.441372	9.278651	-4.813235	0.987386
83	-0.000016	-1.110352	-0.000003	-36.357620	10.287571	-4.619665	0.986904
84	-0.000004	-0.610352	0.000002	-35.319153	11.251936	-4.502242	0.986517
85	0.000002	0.296692	-0.000008	-34.447353	12.152100	-4.445189	0.986307
[LeftAnkle]
#Fr	Tx	Ty	Tz	Rx	Ry	Rz	SF
81	0.000013	-11.980804	-0.000015	12.641418	0.000000	-0.000001	1.027159
82	0.000026	-11.940796	0.000055	11.784698	-0.000000	-0.000001	1.027862
83	-0.000012	-12.168060	0.000019	10.914100	0.000000	-0.000002	1.027626
84	-0.000005	-12.150818	0.000013	10.030879	0.000000	-0.000001	1.026877
85	0.000031	-12.514313	0.000041	9.184698	-0.000000	-0.000002	1.026530
[RightAnkle]
#Fr	Tx	Ty	Tz	Rx	Ry	Rz	SF
81	0.000018	-6.928955	-0.000075	7.605458	0.000001	0.000003	1.003956
82	-0.000014	-6.581543	-0.000011	7.290870	-0.000001	0.000004	1.004552
83	0.000040	-6.832825	-0.000015	6.964386	0.000001	-0.000001	1.004480
84	-0.000020	-7.034851	-0.000026	6.705820	0.000001	0.000003	1.004918
85	-0.000012	-7.144470	-0.000008	6.570724	0.000000	-0.000000	1.005084
[LeftCollar]
#Fr	Tx	Ty	Tz	Rx	Ry	Rz	SF
81	0.000025	-17.231079	-2.418727	-2.055624	11.613686	6.004988	1.088258
82	-0.000011	-17.600159	-2.357287	-2.487420	11.308546	6.050370	1.087992
83	-0.000010	-17.893616	-2.292111	-2.998150	10.995835	6.018988	1.088498
84	0.000002	-18.111176	-2.224578	-3.508115	10.673932	5.945854	1.088466
85	0.000010	-18.251892	-2.156396	-3.990954	10.349467	5.862757	1.088971
[RightCollar]
#Fr	Tx	Ty	Tz	Rx	Ry	Rz	SF
81	-0.000011	-17.231049	-2.418784	-8.238292	-12.297203	-9.064363	1.073747
82	-0.000006	-17.600006	-2.357339	-8.095190	-11.938577	-9.225250	1.074255
83	-0.000031	-17.893463	-2.292197	-7.867398	-11.547151	-9.435234	1.073700
84	0.000006	-18.111053	-2.224601	-7.613123	-11.137486	-9.641492	1.072920
85	0.000002	-18.251862	-2.156430	-7.375709	-10.726933	-9.803982	1.071881
[EndOfFile]
